HIERARCHY
ROOT Hips
{
    OFFSET 0.0 0.0 0.0
    CHANNELS 6 Xposition Yposition Zposition Zrotation Xrotation Yrotation
    JOINT Spine
    {
        OFFSET 0.0 5.0 0.0
        CHANNELS 3 Zrotation Xrotation Yrotation
        JOINT Chest
        {
            OFFSET 0.0 5.0 0.0
            CHANNELS 3 Zrotation Xrotation Yrotation
            JOINT Neck
            {
                OFFSET 0.0 8.0 0.0
                CHANNELS 3 Zrotation Xrotation Yrotation
                JOINT Head
                {
                    OFFSET 0.0 5.0 0.0
                    CHANNELS 3 Zrotation Xrotation Yrotation
                    End Site
                    {
                        OFFSET 0.0 3.0 0.0
                    }
                }
            }
            JOINT LeftShoulder
            {
                OFFSET -5.0 0.0 0.0
                CHANNELS 3 Zrotation Xrotation Yrotation
                JOINT LeftArm
                {
                    OFFSET 0.0 -10.0 0.0
                    CHANNELS 3 Zrotation Xrotation Yrotation
                    JOINT LeftForeArm
                    {
                        OFFSET 0.0 -10.0 0.0
                        CHANNELS 3 Zrotation Xrotation Yrotation
                        End Site
                        {
                            OFFSET 0.0 -3.0 0.0
                        }
                    }
                }
            }
        }
    }
}

MOTION
Frames: 44
Frame Time: 0.033333
970.000000 442.938926 135.818713 0.000000 0.000000 0.000000 0.000000 0.000000 0.000000 29.678605 22.795040 0.000000 180.000000 15.540975 0.000000 29.744881 -19.528548 -0.000000 150.255119 -17.626165 30.000000 19.983107 11.564400 0.000000 18.000000 -0.088046 0.000000
1354.522934 467.411410 120.103897 0.000000 0.000000 0.000000 0.000000 0.000000 0.000000 150.622570 12.935299 4.973798 -29.377430 -6.799303 4.973798 140.176400 0.746545 3.759997 -12.221629 -0.149227 29.763441 132.794256 -4.679629 -3.759997 -2.626015 -0.115846 0.313953
969.997807 442.887864 139.150365 0.000000 0.000000 0.000000 0.000000 0.000000 0.000000 31.061399 -9.053517 9.635073 180.000000 4.048924 9.635073 30.285790 8.431244 7.460697 149.714210 10.774726 29.057495 19.151579 -16.334253 -7.460697 18.000000 -0.000951 0.626666
1246.736984 514.278152 124.980240 0.000000 0.000000 0.000000 0.000000 0.000000 0.000000 143.557092 18.707017 13.690942 -36.442908 6.900280 13.690942 133.761037 -1.257182 11.043737 -156.950665 -5.749245 27.893295 0.000000 0.000000 0.000000 1.928484 0.494901 0.936907
1245.221100 458.637464 105.373384 0.000000 0.000000 0.000000 0.000000 0.000000 0.000000 160.701064 19.640152 16.886559 -19.298936 -22.153402 16.886559 140.193827 1.812924 14.452610 -157.554825 -6.886431 26.289200 29.500467 5.351965 -14.452610 -15.049953 -0.535197 1.243449
1257.365570 418.514181 137.220391 0.000000 0.000000 0.000000 0.000000 0.000000 0.000000 -143.710676 -4.503807 19.021130 36.289324 -2.432141 19.021130 163.220413 2.424430 17.633558 11.688054 -1.675766 24.270510 152.038385 -0.145279 -17.633558 -2.339948 0.146194 1.545085
1275.099564 408.163741 107.384798 0.000000 0.000000 0.000000 0.000000 0.000000 0.000000 -132.929531 -9.482236 19.960535 47.070469 -1.346262 19.960535 173.491912 3.508493 20.536413 -160.709681 -4.784557 21.869059 33.138793 4.705994 -20.536413 -14.686121 -0.470599 1.840623
1290.611115 384.880857 92.178815 0.000000 0.000000 0.000000 0.000000 0.000000 0.000000 -132.705235 10.704526 19.645745 47.294765 3.816025 19.645745 -173.778854 -1.070005 23.115397 20.496835 1.773648 19.122720 -161.220290 -4.466420 -23.115397 1.723235 0.412567 2.128896
1302.817154 380.305352 107.430213 0.000000 0.000000 0.000000 0.000000 0.000000 0.000000 -131.493915 1.798759 18.096541 48.506085 -6.153783 18.096541 -165.393697 1.298226 25.329838 23.154815 -2.208708 16.074804 -178.200316 -0.633944 -25.329838 0.138141 0.011032 2.408768
1304.997711 379.563582 110.370368 0.000000 0.000000 0.000000 0.000000 0.000000 0.000000 -126.727972 10.833558 15.410265 53.272028 -16.263073 15.410265 -160.219593 5.970356 27.144812 28.448880 -6.882556 12.773379 -174.368770 0.155051 -27.144812 0.079526 -0.086068 2.679134
1311.668472 386.890390 75.188338 0.000000 0.000000 0.000000 0.000000 0.000000 0.000000 -122.308728 1.002620 11.755705 57.691272 2.091149 11.755705 -158.801130 -0.554352 28.531695 150.942637 -0.274458 9.270510 -154.878332 -4.251322 -28.531695 2.695409 0.483884 2.938926
1305.131836 395.180186 82.449049 0.000000 0.000000 0.000000 0.000000 0.000000 0.000000 -125.112810 -6.778914 7.362491 54.887190 22.771863 7.362491 -146.487292 -8.045442 29.468618 -175.167369 7.872202 5.621439 -159.224034 -4.975142 -29.468618 1.782042 0.494108 3.187120
1296.320457 392.734526 71.073391 0.000000 0.000000 0.000000 0.000000 0.000000 0.000000 -131.035750 -14.233177 2.506665 48.964250 11.271951 2.506665 -128.969563 -0.397907 29.940802 38.856147 4.561070 1.883716 -134.776850 -0.219179 -29.940802 3.458429 0.141898 3.422736
1306.963577 386.612041 85.845175 0.000000 0.000000 0.000000 0.000000 0.000000 0.000000 -124.469622 -1.167651 -2.506665 55.530378 -0.966848 -2.506665 -109.994856 3.917880 29.940802 37.691309 -2.103377 -1.883716 -118.274788 2.170107 -29.940802 5.098336 -0.155982 3.644843
969.892723 442.572198 72.850509 0.000000 0.000000 0.000000 0.000000 0.000000 0.000000 41.287575 -39.497639 -7.362491 180.000000 -2.550932 -7.362491 30.974696 7.851667 29.468618 149.025304 -5.485666 -5.621439 15.072869 1.764043 -29.468618 18.000000 -0.142919 3.852566
969.876883 442.545207 79.848367 0.000000 0.000000 0.000000 0.000000 0.000000 0.000000 42.241956 39.154001 -11.755705 180.000000 -12.152500 -11.755705 30.826133 -0.655980 28.531695 149.173867 4.935175 -9.270510 14.823070 -6.212897 -28.531695 18.000000 0.580644 4.045085
969.859960 442.518116 60.396654 0.000000 0.000000 0.000000 0.000000 0.000000 0.000000 43.199779 20.045773 -15.410265 180.000000 -28.103327 -15.410265 30.649504 12.811043 27.144812 149.350496 -4.787184 -12.773379 14.587557 1.021790 -27.144812 18.000000 -0.281064 4.221640
969.841956 442.490926 59.260096 0.000000 0.000000 0.000000 0.000000 0.000000 0.000000 44.157210 55.553580 -18.096541 180.000000 -8.778441 -18.096541 30.446417 -8.672637 25.329838 149.553583 -14.196908 -16.074804 14.366154 -2.340983 -25.329838 18.000000 0.407938 4.381533
969.822873 442.463637 50.822114 0.000000 0.000000 0.000000 0.000000 0.000000 0.000000 45.110117 -52.948270 -19.645745 180.000000 11.149220 -19.645745 30.218633 -3.724639 23.115397 149.781367 4.864005 -19.122720 14.158653 1.756483 -23.115397 18.000000 -0.040899 4.524135
969.802712 442.436251 63.745227 0.000000 0.000000 0.000000 0.000000 0.000000 0.000000 46.054109 -21.742557 -19.960535 180.000000 -18.017809 -19.960535 29.968037 0.156749 20.536413 150.031963 -14.122124 -21.869059 13.964823 -2.164179 -20.536413 18.000000 0.282233 4.648882
1187.040939 541.658249 38.879238 0.000000 0.000000 0.000000 0.000000 0.000000 0.000000 82.806623 -3.066343 -19.021130 -97.193377 16.829017 -19.021130 45.395981 3.655129 17.633558 -156.144455 -2.263337 -24.270510 0.000000 0.000000 0.000000 0.000000 0.000000 0.000000
1182.242889 522.024286 33.717457 0.000000 0.000000 0.000000 0.000000 0.000000 0.000000 -105.721938 -26.740213 -16.886559 74.278062 0.412476 -16.886559 -155.708006 -1.731597 14.452610 -157.302521 -1.756380 -26.289200 0.000000 0.000000 0.000000 2.684983 0.252957 4.842916
1180.914459 527.065626 49.486425 0.000000 0.000000 0.000000 0.000000 0.000000 0.000000 88.055617 2.773370 -13.690942 -91.944383 -1.572786 -13.690942 -158.862018 -2.598168 11.043737 -151.747289 -2.652603 -27.893295 0.000000 0.000000 0.000000 0.000000 0.000000 0.000000
1236.800194 541.387432 37.096287 0.000000 0.000000 0.000000 0.000000 0.000000 0.000000 -85.588400 1.043956 -9.635073 94.411600 -3.689684 -9.635073 -159.297106 7.084277 7.460697 -157.915391 -2.345134 -29.057495 26.607362 2.128445 -7.460697 14.926890 1.296217 4.960574
1161.066513 575.006626 68.150841 0.000000 0.000000 0.000000 0.000000 0.000000 0.000000 -81.021168 5.029568 -4.973798 98.978832 -10.168130 -4.973798 -102.851701 1.392291 3.759997 -157.041007 -3.009994 -29.763441 21.429890 2.805055 -3.759997 10.859432 -0.194237 4.990134
1255.636253 512.645942 50.422573 0.000000 0.000000 0.000000 0.000000 0.000000 0.000000 77.832564 7.793850 -0.000000 -102.167436 0.937660 -0.000000 -158.264834 -2.472631 0.000000 -130.745502 -0.730047 -30.000000 -157.699225 -2.486164 -0.000000 0.000000 0.000000 0.000000
1265.118484 521.473864 42.835257 0.000000 0.000000 0.000000 0.000000 0.000000 0.000000 64.078276 -3.196649 4.973798 -115.921724 1.647127 4.973798 41.397952 -1.056539 -3.759997 -139.329851 0.301309 -29.763441 20.223252 0.899805 3.759997 -16.047574 -0.011262 4.990134
1228.099480 522.138258 65.524101 0.000000 0.000000 0.000000 0.000000 0.000000 0.000000 71.050901 8.248260 9.635073 -108.949099 -3.964714 9.635073 150.099970 6.529053 -7.460697 -139.894702 0.318683 -29.057495 -156.275691 -3.075040 7.460697 0.000000 0.000000 0.000000
1240.357246 528.695873 50.442447 0.000000 0.000000 0.000000 0.000000 0.000000 0.000000 65.413351 -12.826745 13.690942 -114.586649 5.903710 13.690942 147.242328 -8.203356 -11.043737 -154.470720 -2.239355 -27.893295 25.557225 2.929606 11.043737 -15.444278 -0.292961 4.911436
1231.815262 551.380248 42.445101 0.000000 0.000000 0.000000 0.000000 0.000000 0.000000 56.412506 8.073202 16.886559 -123.587494 -12.565561 16.886559 -153.392336 10.450416 -14.452610 -154.784582 -2.587877 -26.289200 24.191555 3.207651 14.452610 -15.580844 -0.320765 4.842916
1221.475182 508.360147 63.832464 0.000000 0.000000 0.000000 0.000000 0.000000 0.000000 77.450622 -1.385032 19.021130 -102.549378 -9.208191 19.021130 -156.789784 -2.719462 -17.633558 -125.590168 -2.286797 -24.270510 -160.017240 -3.393786 17.633558 1.833434 0.422178 4.755283
969.477684 442.100429 64.310278 0.000000 0.000000 0.000000 0.000000 0.000000 0.000000 54.932575 26.318000 19.960535 180.000000 16.262377 19.960535 25.919122 -14.714989 -20.536413 154.080878 3.659860 -21.869059 12.612867 -8.524047 20.536413 18.000000 0.584615 4.648882
1480.140495 518.878891 55.696878 0.000000 0.000000 0.000000 0.000000 0.000000 0.000000 -110.621767 80.327729 19.645745 69.378233 -87.640239 19.645745 -158.235933 -2.413040 -23.115397 166.031448 4.885630 -19.122720 -155.186432 -3.721899 23.115397 2.641553 0.355998 4.524135
1271.640472 556.840560 87.233101 0.000000 0.000000 0.000000 0.000000 0.000000 0.000000 -94.404719 2.382300 18.096541 85.595281 -0.951361 18.096541 -62.417786 -2.872273 -25.329838 23.992813 -0.351526 -16.074804 -76.856107 -1.392312 25.329838 7.708835 0.384401 4.381533
1258.556786 530.268441 63.094530 0.000000 0.000000 0.000000 0.000000 0.000000 0.000000 78.355945 5.873563 15.410265 -101.644055 -6.974001 15.410265 35.068294 6.054410 -27.144812 -54.090640 -1.274436 -12.773379 35.848220 -3.551534 27.144812 -8.104639 1.044596 4.221640
1250.800209 527.150567 78.324112 0.000000 0.000000 0.000000 0.000000 0.000000 0.000000 72.417769 -0.115795 11.755705 -107.582231 2.397491 11.755705 24.571109 0.343363 -28.531695 -39.196117 6.704752 -9.270510 10.411117 -3.146091 28.531695 -9.048616 -0.802568 4.045085
1243.466148 571.776259 110.754018 0.000000 0.000000 0.000000 0.000000 0.000000 0.000000 86.301473 11.864116 7.362491 -93.698527 -2.283838 7.362491 24.553534 4.258992 -29.468618 -153.460385 -4.076951 -5.621439 19.510484 3.111120 29.468618 -10.109500 -2.554401 3.852566
1261.883812 566.052918 91.585873 0.000000 0.000000 0.000000 0.000000 0.000000 0.000000 94.015209 7.116756 2.506665 -85.984791 -15.330063 2.506665 38.959993 -3.817078 -29.940802 -154.008305 -4.934719 -1.883716 20.870951 3.220254 29.940802 -10.872440 -0.019365 3.644843
1284.436798 527.190542 97.357659 0.000000 0.000000 0.000000 0.000000 0.000000 0.000000 111.186365 18.627742 -2.506665 -68.813635 5.432358 -2.506665 58.506163 -0.449965 -29.940802 -19.138727 3.355687 1.883716 51.457372 -10.998051 29.940802 -5.203198 0.981149 3.422736
1272.860069 533.494012 97.640951 0.000000 0.000000 0.000000 0.000000 0.000000 0.000000 72.301471 -8.957901 -7.362491 -107.698529 11.439783 -7.362491 78.802573 6.188190 -29.468618 -154.772375 -4.066901 5.621439 26.927455 4.016866 29.468618 -15.307255 -0.401687 3.187120
1255.264664 498.243735 114.525856 0.000000 0.000000 0.000000 0.000000 0.000000 0.000000 164.596971 36.764102 -11.755705 -15.403029 17.730836 -11.755705 125.849126 -5.584606 -28.531695 -156.067666 -5.218740 9.270510 33.087561 4.461140 28.531695 -14.691244 -0.446114 2.938926
1259.202232 470.407684 116.605997 0.000000 0.000000 0.000000 0.000000 0.000000 0.000000 -139.980397 -13.319187 -15.410265 40.019603 11.303489 -15.410265 165.887722 5.238967 -27.144812 -157.901492 -4.581949 12.773379 35.196094 5.080044 27.144812 -14.480391 -0.508004 2.679134
1236.502075 429.951335 123.306351 0.000000 0.000000 0.000000 0.000000 0.000000 0.000000 -113.295066 6.416122 -18.096541 66.704934 -14.684787 -18.096541 -174.664169 8.234494 -25.329838 -159.007335 -6.017320 16.074804 32.868990 6.689447 25.329838 -14.713101 -0.668945 2.408768
1253.359451 413.942538 122.369413 0.000000 0.000000 0.000000 0.000000 0.000000 0.000000 -123.348580 -3.852646 -19.645745 56.651420 5.168896 -19.645745 -167.815074 0.061429 -23.115397 -159.603180 -5.402612 19.122720 32.791747 7.287177 23.115397 -14.720825 -0.728718 2.128896
